<svg xmlns="http://www.w3.org/2000/svg" viewBox="0 0 64 64" fill="none">
  <!-- Havuz dalgası ikonu - altın renk -->
  <rect width="64" height="64" rx="12" fill="#0A0E1A"/>
  <!-- Dalga 1 -->
  <path d="M8 36 C12 32 16 40 20 36 C24 32 28 40 32 36 C36 32 40 40 44 36 C48 32 52 40 56 36" stroke="#D4AF37" stroke-width="3" stroke-linecap="round" fill="none"/>
  <!-- Dalga 2 -->
  <path d="M8 44 C12 40 16 48 20 44 C24 40 28 48 32 44 C36 40 40 48 44 44 C48 40 52 48 56 44" stroke="#D4AF37" stroke-width="2.5" stroke-linecap="round" fill="none" opacity="0.6"/>
  <!-- Güneş / su damlası -->
  <circle cx="32" cy="22" r="8" fill="#D4AF37" opacity="0.9"/>
  <circle cx="32" cy="22" r="4" fill="#0A0E1A"/>
</svg>
